<?xml version="1.0" standalone="no"?>
<!DOCTYPE svg PUBLIC "-//W3C//DTD SVG 20010904//EN"
 "http://www.w3.org/TR/2001/REC-SVG-20010904/DTD/svg10.dtd">
<svg version="1.0" xmlns="http://www.w3.org/2000/svg"
 width="162.000000pt" height="162.000000pt" viewBox="0 0 162.000000 162.000000"
 preserveAspectRatio="xMidYMid meet">
<metadata>
Created by potrace 1.14, written by Peter Selinger 2001-2017
</metadata>
<g transform="translate(0.000000,162.000000) scale(0.100000,-0.100000)"
fill="#000000" stroke="none">
<path d="M737 1514 c-1 -1 -22 -4 -47 -8 -66 -8 -79 -11 -86 -19 -4 -4 -14 -7
-23 -7 -19 0 -191 -82 -191 -91 0 -3 24 -16 52 -30 62 -28 168 -130 168 -160
0 -5 7 -24 16 -40 18 -36 24 -59 29 -114 5 -51 8 -167 5 -180 -1 -5 -2 -12 -1
-15 1 -3 3 -28 5 -56 4 -58 25 -95 70 -122 28 -17 38 -18 78 -7 77 19 104 56
103 137 0 27 3 48 6 48 3 0 3 21 -1 48 -4 26 -4 49 1 52 4 3 4 11 0 19 -8 12
-1 56 13 91 24 59 134 59 169 1 15 -26 25 -110 17 -146 -1 -5 -1 -14 0 -20 5
-24 3 -103 -4 -113 -3 -6 -2 -13 3 -16 19 -12 -35 -140 -84 -200 -59 -73 -204
-128 -272 -104 -13 4 -23 4 -23 -1 0 -12 -96 25 -134 52 -50 34 -87 78 -114
137 -22 47 -26 71 -28 168 -2 62 -6 116 -9 121 -3 5 -1 12 5 16 6 4 8 11 4 16
-3 6 -7 28 -8 48 -3 50 -49 127 -89 148 -60 32 -130 17 -178 -38 -28 -32 -70
-115 -62 -123 4 -3 2 -6 -4 -6 -5 0 -10 -6 -10 -12 0 -7 -4 -35 -8 -61 -22
-154 -1 -287 70 -427 32 -64 112 -168 151 -196 14 -10 37 -29 50 -42 13 -13
24 -19 24 -15 0 4 4 3 8 -3 10 -16 171 -92 207 -98 17 -3 43 -8 60 -11 63 -13
190 -8 270 10 6 1 27 5 48 10 20 4 37 12 37 18 0 6 3 7 7 4 16 -16 190 97 253
164 71 76 133 181 166 284 2 6 9 42 17 81 24 133 5 273 -53 395 -17 35 -39 76
-48 90 -45 69 -68 99 -73 99 -3 0 -26 19 -51 43 -52 49 -79 71 -93 76 -5 2
-19 10 -31 17 -32 21 -141 64 -163 64 -11 0 -22 4 -25 8 -3 5 -26 10 -53 11
-73 5 -143 7 -146 5z"/>
</g>
</svg>
